<?xml version="1.0" encoding="UTF-8" standalone="no"?>
<svg
   id="svg"
   version="1.1"
   width="400"
   height="256.60377358490564"
   viewBox="0, 0, 400,256.60377358490564"
   sodipodi:docname="logo.svg"
   inkscape:version="1.2 (dc2aedaf03, 2022-05-15)"
   xmlns:inkscape="http://www.inkscape.org/namespaces/inkscape"
   xmlns:sodipodi="http://sodipodi.sourceforge.net/DTD/sodipodi-0.dtd"
   xmlns="http://www.w3.org/2000/svg"
   xmlns:svg="http://www.w3.org/2000/svg">
  <defs
     id="defs187" />
  <sodipodi:namedview
     id="namedview185"
     pagecolor="#ffffff"
     bordercolor="#666666"
     borderopacity="1.0"
     inkscape:showpageshadow="2"
     inkscape:pageopacity="0.0"
     inkscape:pagecheckerboard="0"
     inkscape:deskcolor="#d1d1d1"
     showgrid="false"
     inkscape:zoom="1.4142136"
     inkscape:cx="391.3836"
     inkscape:cy="212.48559"
     inkscape:window-width="1920"
     inkscape:window-height="1050"
     inkscape:window-x="0"
     inkscape:window-y="30"
     inkscape:window-maximized="1"
     inkscape:current-layer="svgg" />
  <g
     id="svgg">
    <path
       id="path0"
       d="m 161.746,101.917 c -3.663,0.54 -6.323,1.316 -8.216,2.397 -1.059,0.605 -2.234,1.232 -2.611,1.395 -2.929,1.26 -8.875,6.265 -10.604,8.925 -2.717,4.182 -3.74,7.798 -2.824,9.99 0.807,1.931 5.958,6.508 10.283,9.137 0.813,0.494 2.378,1.592 3.478,2.439 2.805,2.161 6.806,5.021 8.041,5.748 0.572,0.337 1.445,0.984 1.939,1.436 0.495,0.453 1.303,1.093 1.798,1.423 1.143,0.764 2.951,2.282 4.108,3.449 0.945,0.952 2.201,1.861 5.391,3.9 2.374,1.517 5.356,3.738 8.053,5.996 0.591,0.495 2.105,1.477 3.365,2.183 1.261,0.705 3.117,2.033 4.126,2.951 1.009,0.918 2.774,2.305 3.921,3.081 1.148,0.777 2.465,1.738 2.928,2.137 0.463,0.399 1.708,1.311 2.767,2.028 1.059,0.716 2.504,1.783 3.21,2.37 0.706,0.588 1.861,1.457 2.567,1.933 3.44,2.316 7.509,5.244 8.315,5.983 1.378,1.263 3.802,2.962 5.309,3.722 0.856,0.432 2.416,1.501 3.466,2.377 1.05,0.875 2.412,2.01 3.028,2.523 0.616,0.513 1.713,1.338 2.439,1.834 1.551,1.059 4.345,3.106 4.529,3.318 5.385,6.2 21.805,7.512 28.831,2.305 0.651,-0.482 1.671,-1.223 2.268,-1.647 0.596,-0.423 1.786,-1.292 2.644,-1.93 0.857,-0.637 2.021,-1.436 2.586,-1.775 0.564,-0.339 2.066,-1.446 3.337,-2.461 1.271,-1.016 2.831,-2.177 3.466,-2.582 0.636,-0.405 1.444,-1.041 1.797,-1.413 0.353,-0.373 2.144,-1.673 3.98,-2.891 1.836,-1.217 4.031,-2.724 4.878,-3.349 0.847,-0.625 2.328,-1.638 3.291,-2.252 0.963,-0.613 2.447,-1.693 3.299,-2.399 0.852,-0.706 2.268,-1.804 3.146,-2.439 0.878,-0.636 1.878,-1.426 2.221,-1.757 0.342,-0.33 1.663,-1.219 2.934,-1.975 3.592,-2.137 8.906,-5.864 12.452,-8.734 2.089,-1.692 5.194,-3.81 6.762,-4.615 0.541,-0.278 1.408,-0.862 1.925,-1.296 0.517,-0.435 1.533,-1.11 2.258,-1.501 0.725,-0.39 2.249,-1.537 3.388,-2.547 3.627,-3.218 4.489,-3.908 6.719,-5.376 1.201,-0.791 2.808,-2.022 3.572,-2.736 0.764,-0.715 1.482,-1.299 1.595,-1.299 0.112,0 0.833,-0.512 1.602,-1.138 0.768,-0.626 2.329,-1.722 3.468,-2.436 1.139,-0.714 2.615,-1.819 3.28,-2.456 0.665,-0.637 1.32,-1.159 1.456,-1.159 0.135,0 1.01,-0.613 1.943,-1.362 0.934,-0.75 2.031,-1.571 2.437,-1.825 1.141,-0.713 2.213,-1.739 2.213,-2.116 0,-0.187 0.216,-0.475 0.479,-0.64 -1.98545,-6.07208 -4.88195,-14.68887 -5.92,-19.828 -9.00545,-5.20984 -18.63536,-6.19754 -27.775,-4.778 -1.288,0.283 -3.209,0.702 -4.268,0.929 -2.83569,0.73126 -5.26467,2.23436 -7.563,3.812 -0.419,0.261 -2.483,2.159 -4.587,4.219 -3.353,3.282 -4.297,4.35 -5.441,6.157 -0.143,0.227 -0.673,1.048 -1.177,1.825 -0.504,0.777 -1.361,2.163 -1.904,3.081 -0.543,0.918 -1.617,2.526 -2.387,3.574 -0.77,1.048 -1.67,2.496 -2.001,3.219 -0.572,1.25 -2.619,4.97 -3.185,5.787 -0.804,1.163 -3.252,4.95 -4.14,6.406 -0.564,0.925 -1.393,2.225 -1.843,2.89 -0.449,0.665 -1.51,2.315 -2.357,3.666 -0.847,1.351 -2.312,3.651 -3.256,5.112 -0.943,1.46 -1.879,3.046 -2.079,3.523 -0.2,0.477 -0.93,1.621 -1.622,2.541 -1.446,1.922 -3.184,4.699 -3.184,5.087 0,0.145 -0.145,0.419 -0.321,0.609 -0.882,0.949 -2.47,3.015 -3.021,3.927 -0.34,0.565 -0.934,1.368 -1.319,1.785 -0.719,0.778 -2.271,4.959 -2.271,6.117 0,1.757 -4.807,6.174 -7.605,6.987 -0.801,0.233 -2.178,0.765 -3.061,1.182 -8.082,3.818 -19.911,-2.245 -22.829,-11.702 -0.563,-1.823 -2.192,-4.408 -3.961,-6.285 -0.934,-0.991 -5.399,-7.877 -5.968,-9.204 -0.555,-1.296 -2.839,-4.552 -3.669,-5.231 -0.522,-0.427 -1.619,-2.31 -3.264,-5.6 -0.459,-0.918 -1.662,-2.882 -2.674,-4.364 -1.012,-1.483 -2.097,-3.204 -2.413,-3.824 -0.315,-0.62 -0.944,-1.66 -1.396,-2.311 -0.453,-0.65 -1.315,-2.083 -1.915,-3.183 -1.26,-2.312 -2.951,-4.974 -3.527,-5.556 -0.219,-0.221 -0.939,-1.29 -1.6,-2.375 -3.803,-6.245 -4.829,-7.69 -8.845,-12.457 -1.774,-2.105 -6.343,-6.061 -8.274,-7.164 -0.848,-0.483 -1.714,-0.992 -1.926,-1.129 -3.292,-2.137 -12.169,-3.25 -18.485,-2.318"
       stroke="none"
       fill="#faf3f0"
       fill-rule="evenodd"
       sodipodi:nodetypes="ccccccccccccccscsccccccsccccccccccscscsccccccccscsssccscccccccsssccccscscscccscccscsscccccccccc" />
    <path
       id="path1"
       d="M 311.682,0.372 246.856,39.78 c -3.276,0.035 -3.532,-0.014 -3.445,-0.663 l -61.03,-38.298 -4.033,2.69 23.118,61.204 C 159.06561,62.259681 176.47324,66.227355 122.501,66.257 26.593137,68.069331 21.968178,94.056643 0.375,146.598 0.05,146.598 0,148.695 0,162.259 v 15.58481 c 40.409744,40.98757 48.415312,52.29745 74.968,53.60719 0,0 183.76648,37.01743 263.301,-16.974 25.80324,-16.00078 55.39458,-53.49367 61.731,-73.01193 0.47018,-5.12194 0.59435,-7.19196 -0.239,-13.60907 l -45.378,-0.518 c -30.51215,25.46828 -66.70518,48.85516 -95,69.559 -6.58,4.877 -19.966,4.337 -27.282,-1.101 -1.549,-1.204 -91.786,-81.162 -91.786,-81.162 1.729,-2.66 7.675,-7.665 10.604,-8.925 0.377,-0.163 1.552,-0.789 2.611,-1.393 6.187,-3.528 21.517,-3.58 26.701,-0.09 0.212,0.142 1.078,0.655 1.926,1.138 1.931,1.103 6.5,5.059 8.274,7.164 4.016,4.767 5.042,6.212 8.845,12.457 0.661,1.085 1.381,2.154 1.6,2.375 0.576,0.582 2.267,3.244 3.527,5.556 0.6,1.1 1.462,2.533 1.915,3.183 0.452,0.651 1.081,1.691 1.396,2.311 0.316,0.62 1.401,2.341 2.413,3.824 1.012,1.482 2.215,3.446 2.674,4.364 1.645,3.29 2.742,5.173 3.264,5.6 0.83,0.679 3.114,3.935 3.669,5.231 0.569,1.327 5.034,8.213 5.968,9.204 1.742,1.848 3.399,4.464 3.942,6.226 0.566,1.834 1.315,3.521 1.563,3.521 0.071,0 -0.059,-0.361 -0.287,-0.803 l 16.86021,-13.64222 15.71579,12.70722 0.666,-1.81 c 18.51913,-22.69636 29.595,-47.05 45.091,-65.906 0.418,-0.261 0.991,-0.668 1.273,-0.906 7.80803,-9.510003 32.00023,-2.51256 38.335,1.105 0.285,0.574 0.287,0.573 0.19,-0.065 L 334.018,61.181 291.077,62.827 314.97,1.711 311.682,0.372"
       stroke="none"
       fill="#f95914"
       fill-rule="evenodd"
       sodipodi:nodetypes="ccccccccsccccccccccccccccccccsscccscccccccccccc" />
    <path
       id="path2"
       d="M 291.077,62.827 334.018,61.181 314.97,1.711 v 0 M 178.348,3.509 c -3.59071,6.4572053 -15.09452,61.741421 -19.31362,61.677868 L 201.466,64.713 179.461,3.63 c 0,-0.314 -0.83,-0.404 -1.113,-0.121 M 63.752,71.708 c -0.076,0.123 -0.003,0.358 0.162,0.522 0.23,0.228 0.26,0.191 0.129,-0.153 -0.127,-0.335 -0.071,-0.414 0.216,-0.304 0.213,0.082 0.448,0.05 0.523,-0.07 0.074,-0.121 -0.096,-0.219 -0.378,-0.219 -0.283,0 -0.576,0.1 -0.652,0.224 m 76.563,42.926 c -2.751,-0.283 -37.34023,-0.44242 -40.05223,-0.13242 -14.559345,7.41335 -20.307121,19.25217 -10.667798,33.17884 26.630178,0.16084 41.756008,-0.1408 67.573028,-0.58742 4.872,-0.125 19.25373,-0.47882 19.25373,-0.47882 m 219.48647,3.99764 C 343.81933,240.71986 272.75456,232.66008 181.429,232.763 75.683456,233.00664 74.968,231.451 74.968,231.451 c 0,0 -24.99506,-3.77478 -74.968,-53.60719 0,25.5398 60.320918,73.96485 94.352,77.81019 2.118,0.18 7.365,0.354 11.661,0.388 5.933,0.047 7.836,0.138 7.916,0.38 47.67005,1.39919 142.94994,0.18176 142.94994,0.18176 C 304.47014,257.58952 405.40375,211.90489 400,141.46507"
       stroke="none"
       fill="#e62906"
       fill-rule="evenodd"
       sodipodi:nodetypes="ccccccccccccccscccccccccccsccc" />
    <path
       id="path3"
       d="M244.673 161.989 C 240.384 162.768,236.070 165.637,232.092 170.355 C 230.159 172.649,230.029 173.965,231.473 176.615 C 235.432 183.884,245.741 187.810,252.492 184.620 C 253.375 184.203,254.752 183.671,255.553 183.438 C 260.968 181.864,264.892 175.487,262.935 171.443 C 262.106 169.730,256.886 164.657,254.938 163.669 C 252.442 162.404,247.154 161.539,244.673 161.989 "
       stroke="none"
       fill="#513e36"
       fill-rule="evenodd" />
  </g>
</svg>
